<?xml version="1.0" encoding="utf-8"?>
<!-- Generator: Adobe Illustrator 16.0.4, SVG Export Plug-In . SVG Version: 6.00 Build 0)  -->
<!DOCTYPE svg PUBLIC "-//W3C//DTD SVG 1.1//EN" "http://www.w3.org/Graphics/SVG/1.1/DTD/svg11.dtd">
<svg version="1.1" id="Layer_1" xmlns="http://www.w3.org/2000/svg" xmlns:xlink="http://www.w3.org/1999/xlink" x="0px" y="0px"
	 width="151.75px" height="57.125px" viewBox="0 0 151.75 57.125" enable-background="new 0 0 151.75 57.125" xml:space="preserve">
<linearGradient id="SVGID_1_" gradientUnits="userSpaceOnUse" x1="76.0859" y1="11.396" x2="76.0859" y2="42.9247">
	<stop  offset="0" style="stop-color:#000000;stop-opacity:0.3"/>
	<stop  offset="1" style="stop-color:#000000;stop-opacity:0.8"/>
</linearGradient>
<path fill="url(#SVGID_1_)" d="M97.539,37.032l-10.012,1.186c-3.604,0.498-6.93-2.021-7.428-5.627l5.051-0.71
	c0.699,0.905,2.121,1.385,3.334,1.217l6.527-0.902c1.803-0.247,3.061-1.91,2.813-3.713l-0.677-4.896
	c-0.25-1.803-1.912-3.062-3.715-2.814l-6.526,0.902c-1.279,0.176-2.438,0.945-2.826,2.09l-5.108,0.668
	c-0.498-3.605,2.021-6.932,5.627-7.43l9.875-1.46c3.604-0.498,6.932,2.021,7.43,5.626l1.262,8.436
	C103.664,33.209,101.145,36.535,97.539,37.032z M63.894,21.165l-6.59-0.019c-1.819-0.005-3.299,1.467-3.303,3.286l-0.014,4.942
	c-0.005,1.819,1.467,3.299,3.286,3.304l6.59,0.018c1.225,0.005,2.569-0.66,3.14-1.65l5.392,0.125
	c-0.01,3.639-2.967,6.581-6.607,6.571l-10.272-0.028c-3.64-0.01-6.582-2.968-6.572-6.607l0.12-8.333
	c0.01-3.639,2.968-6.582,6.607-6.571l9.885,0.026c3.639,0.01,6.582,2.969,6.572,6.607l-5.152,0.023
	C66.437,21.775,65.184,21.168,63.894,21.165z M63.515,26.565c0.004-1.364,1.113-2.468,2.478-2.464l7.589,0.152v5.174l-7.239-0.02
	C64.978,29.404,63.511,27.93,63.515,26.565z M87.613,27.322c0.188,1.353-0.676,2.662-2.027,2.849l-6.807,0.938l-0.715-5.083
	l6.764-0.813C86.18,25.025,87.428,25.971,87.613,27.322z"/>
<linearGradient id="SVGID_2_" gradientUnits="userSpaceOnUse" x1="70.6323" y1="11.396" x2="70.6323" y2="42.9247" gradientTransform="matrix(1 0 0 -1 0.1401 56.1797)">
	<stop  offset="0" style="stop-color:#000000;stop-opacity:0.8"/>
	<stop  offset="1" style="stop-color:#000000;stop-opacity:0.3"/>
</linearGradient>
<path fill="url(#SVGID_2_)" d="M72.987,19.049l-5.35-5.887c0,0-0.586-1.788,1.419-1.346l4.898,6.501
	C73.955,18.317,74.266,19.672,72.987,19.049z"/>
<linearGradient id="SVGID_3_" gradientUnits="userSpaceOnUse" x1="75.9443" y1="11.396" x2="75.9443" y2="42.9247" gradientTransform="matrix(1 0 0 -1 0.1401 56.1797)">
	<stop  offset="0" style="stop-color:#000000;stop-opacity:0.8"/>
	<stop  offset="1" style="stop-color:#000000;stop-opacity:0.3"/>
</linearGradient>
<path fill="url(#SVGID_3_)" d="M76.591,18.305l0.354-7.013c0,0-0.6-1.548-1.721-0.124l0.296,7.178
	C75.521,18.346,76.016,19.469,76.591,18.305z"/>
<linearGradient id="SVGID_4_" gradientUnits="userSpaceOnUse" x1="80.8525" y1="11.396" x2="80.8525" y2="42.9247" gradientTransform="matrix(1 0 0 -1 0.1401 56.1797)">
	<stop  offset="0" style="stop-color:#000000;stop-opacity:0.8"/>
	<stop  offset="1" style="stop-color:#000000;stop-opacity:0.3"/>
</linearGradient>
<path fill="url(#SVGID_4_)" d="M78.766,19.049l5.352-5.887c0,0,0.586-1.788-1.42-1.346l-4.898,6.501
	C77.798,18.317,77.609,19.547,78.766,19.049z"/>
<linearGradient id="SVGID_5_" gradientUnits="userSpaceOnUse" x1="70.6328" y1="11.396" x2="70.6328" y2="42.9247" gradientTransform="matrix(1 0 0 -1 0.1401 56.1797)">
	<stop  offset="0" style="stop-color:#000000;stop-opacity:0.8"/>
	<stop  offset="1" style="stop-color:#000000;stop-opacity:0.3"/>
</linearGradient>
<path fill="url(#SVGID_5_)" d="M73.955,36.46l-4.898,6.501c-2.006,0.441-1.419-1.346-1.419-1.346l5.35-5.887
	C74.266,35.105,73.955,36.46,73.955,36.46z"/>
<linearGradient id="SVGID_6_" gradientUnits="userSpaceOnUse" x1="75.9458" y1="11.396" x2="75.9458" y2="42.9247" gradientTransform="matrix(1 0 0 -1 0.1401 56.1797)">
	<stop  offset="0" style="stop-color:#000000;stop-opacity:0.8"/>
	<stop  offset="1" style="stop-color:#000000;stop-opacity:0.3"/>
</linearGradient>
<path fill="url(#SVGID_6_)" d="M75.521,36.432l-0.296,7.178c1.121,1.425,1.722-0.123,1.722-0.123l-0.355-7.014
	C76.016,35.309,75.521,36.432,75.521,36.432z"/>
<linearGradient id="SVGID_7_" gradientUnits="userSpaceOnUse" x1="80.8516" y1="11.396" x2="80.8516" y2="42.9247" gradientTransform="matrix(1 0 0 -1 0.1401 56.1797)">
	<stop  offset="0" style="stop-color:#000000;stop-opacity:0.8"/>
	<stop  offset="1" style="stop-color:#000000;stop-opacity:0.3"/>
</linearGradient>
<path fill="url(#SVGID_7_)" d="M77.798,36.46l4.897,6.501c2.007,0.441,1.421-1.346,1.421-1.346l-5.351-5.887
	C77.609,35.23,77.798,36.46,77.798,36.46z"/>
<g>
	<g>
		<g>
			
				<linearGradient id="SVGID_8_" gradientUnits="userSpaceOnUse" x1="20.1416" y1="0.2168" x2="19.6416" y2="56.5498" gradientTransform="matrix(1 0 0 -1 0.1401 56.1797)">
				<stop  offset="0" style="stop-color:#000000;stop-opacity:0.8"/>
				<stop  offset="1" style="stop-color:#000000;stop-opacity:0.3"/>
			</linearGradient>
			<polygon fill="url(#SVGID_8_)" points="25.051,27.028 25.051,15.49 14.898,27.028 			"/>
		</g>
		<g>
			<linearGradient id="SVGID_9_" gradientUnits="userSpaceOnUse" x1="22.9014" y1="0.2412" x2="22.4015" y2="56.5559">
				<stop  offset="0" style="stop-color:#000000;stop-opacity:0.3"/>
				<stop  offset="1" style="stop-color:#000000;stop-opacity:0.8"/>
			</linearGradient>
			<path fill="url(#SVGID_9_)" d="M40.685,0.51h-36c-2.209,0-4,1.791-4,4v48c0,2.209,1.791,4,4,4h27.938l12.062-11.875V4.51
				C44.685,2.301,42.894,0.51,40.685,0.51z M26.927,37.67c-1.02,0-1.876-0.814-1.876-1.835v-3.18H8.824
				c-1.061,0-1.917-0.856-1.917-1.876v-2.364c0-1.346,0.449-2.243,1.224-3.099L21.3,10.353c0.774-0.855,1.753-1.223,3.099-1.223
				h6.238c1.06,0,1.916,0.815,1.916,1.875v16.023h2.202c1.06,0,1.916,0.815,1.916,1.876v1.875c0,1.02-0.856,1.876-1.916,1.876
				h-2.202v3.14c0,1.02-0.856,1.875-1.916,1.875H26.927z M41.747,44.135l-9.688,9.688c-1.75,1.75-1.375-1.312-1.375-1.312v-8
				c0-1.938,1.875-1.938,1.875-1.938h8.438C43.935,42.51,41.747,44.135,41.747,44.135z"/>
		</g>
	</g>
</g>
<g>
	<linearGradient id="SVGID_10_" gradientUnits="userSpaceOnUse" x1="127.1963" y1="56.2148" x2="127.5293" y2="0.7148">
		<stop  offset="0" style="stop-color:#000000;stop-opacity:0.8"/>
		<stop  offset="1" style="stop-color:#000000;stop-opacity:0.3"/>
	</linearGradient>
	<polygon fill="url(#SVGID_10_)" points="132.447,27.028 132.447,15.49 122.295,27.028 	"/>
	<linearGradient id="SVGID_11_" gradientUnits="userSpaceOnUse" x1="129.0195" y1="56.2256" x2="129.3526" y2="0.7256">
		<stop  offset="0" style="stop-color:#000000;stop-opacity:0.8"/>
		<stop  offset="1" style="stop-color:#000000;stop-opacity:0.3"/>
	</linearGradient>
	<path fill="url(#SVGID_11_)" d="M147.186,0.51h-36c-2.209,0-4,1.791-4,4v40.125l12.062,11.875h27.938c2.209,0,4-1.791,4-4v-48
		C151.186,2.301,149.395,0.51,147.186,0.51z M119.811,53.822l-9.688-9.688c0,0-2.188-1.625,0.75-1.562h8.438
		c0,0,1.875,0,1.875,1.938v8C121.186,52.51,121.561,55.572,119.811,53.822z M144.066,30.779c0,1.02-0.855,1.876-1.916,1.876h-2.201
		v3.14c0,1.02-0.856,1.875-1.916,1.875h-3.711c-1.02,0-1.875-0.814-1.875-1.835v-3.18h-16.227c-1.062,0-1.918-0.856-1.918-1.876
		v-2.364c0-1.346,0.449-2.243,1.225-3.099l13.168-14.964c0.775-0.855,1.754-1.223,3.1-1.223h6.238c1.06,0,1.916,0.815,1.916,1.875
		v16.023h2.201c1.061,0,1.916,0.815,1.916,1.876V30.779z"/>
</g>
</svg>
