<?xml version="1.0" encoding="iso-8859-1"?>
<!-- Generator: Adobe Illustrator 19.0.0, SVG Export Plug-In . SVG Version: 6.00 Build 0)  -->
<svg xmlns="http://www.w3.org/2000/svg" xmlns:xlink="http://www.w3.org/1999/xlink" version="1.1" id="Capa_1" x="0px" y="0px" viewBox="0 0 460 460" style="enable-background:new 0 0 460 460;" xml:space="preserve" width="512" height="512">
<g id="XMLID_1217_">
	<path id="XMLID_1213_" style="fill:#CBB57A;" d="M460,380H0V60h460V380z"/>
	<path id="XMLID_1214_" style="fill:#826846;" d="M460,400H0v-20l20-10h420l20,10V400z"/>
	<path id="XMLID_1212_" style="fill:#9E8E60;" d="M460,380H0l10-10l10-10V80L0,60h460l-20,20v280L460,380z"/>
	<path id="XMLID_1210_" style="fill:#3A3B34;" d="M440,360H20V80h420V360z"/>
	<path id="XMLID_1209_" style="fill:#E5B352;" d="M190,330v30c0,5.523-4.477,10-10,10H60c-5.523,0-10-4.477-10-10v-30   c0-5.523,4.477-10,10-10h120C185.523,320,190,324.477,190,330z"/>
	<path id="XMLID_1207_" style="fill:#D66A40;" d="M170,370H70v-50h100V370z"/>
	<path id="XMLID_1205_" style="fill:#D1D6CE;" d="M410,355v10c0,2.761-2.239,5-5,5h-60c-2.761,0-5-2.239-5-5v-10   c0-2.761,2.239-5,5-5h60C407.761,350,410,352.239,410,355z"/>
	<path id="XMLID_1976_" style="fill:#D1D6CE;" d="M189.489,136.838c-1.279-3.837-4.744-6.526-8.778-6.813   c-4.037-0.291-7.845,1.885-9.653,5.502L133.822,210h-13.82c-5.523,0-10,4.477-10,10s4.477,10,10,10h3.82l-12.764,25.528   c-2.47,4.94-0.468,10.947,4.472,13.417c4.939,2.469,10.947,0.467,13.417-4.472L146.183,230h53.279l11.054,33.162   c1.397,4.191,5.298,6.841,9.485,6.841c1.048,0,2.115-0.167,3.164-0.516c5.24-1.747,8.071-7.41,6.325-12.649L189.489,136.838z    M156.182,210l21.967-43.935L192.795,210H156.182z M340,170c-5.523,0-10,4.477-10,10v0.027C321.637,173.736,311.247,170,300,170   c-27.57,0-50,22.43-50,50s22.43,50,50,50c11.247,0,21.637-3.735,30-10.027V260c0,5.523,4.477,10,10,10s10-4.477,10-10v-80   C350,174.478,345.523,170,340,170z M300,250c-16.542,0-30-13.458-30-30s13.458-30,30-30s30,13.458,30,30S316.542,250,300,250z"/>
</g>















</svg>
