<?xml version="1.0" encoding="iso-8859-1"?>
<!-- Generator: Adobe Illustrator 19.0.0, SVG Export Plug-In . SVG Version: 6.00 Build 0)  -->
<svg version="1.1" id="Layer_1" xmlns="http://www.w3.org/2000/svg" xmlns:xlink="http://www.w3.org/1999/xlink" x="0px" y="0px"
	 viewBox="0 0 511.999 511.999" style="enable-background:new 0 0 511.999 511.999;" xml:space="preserve">
<path style="fill:#CCCCCC;" d="M196.441,294.401l14.473,49.984c-0.202,14.759-26.541,4.36-28.744,18.929
	c-8.994-5.337-25.647-37.988-26.124-44.064L196.441,294.401z"/>
<g>
	<rect x="154.932" y="122.566" style="fill:#FFFFFF;" width="51.819" height="51.819"/>
	<rect x="154.932" y="39.477" style="fill:#FFFFFF;" width="51.819" height="51.819"/>
</g>
<path style="fill:#CCCCCC;" d="M367.395,276.842c14.831,5.11,23.146,20.847,19.024,35.975l-14.128,51.807
	c-21.466,0-46.98-11.379-67.433-30.105l8.324-56.002l25.766-11.48L367.395,276.842z"/>
<path style="fill:#F73C3C;" d="M338.948,282.656v35.511c0,0.596-0.488,1.084-1.084,1.084H125.611c-0.596,0-1.084-0.488-1.084-1.084
	V1.096c0-0.608,0.488-1.096,1.084-1.096h212.254c0.596,0,1.084,0.488,1.084,1.096v265.943V282.656z M206.745,174.385v-51.819
	h-51.819v51.819H206.745z M206.745,91.296V39.477h-51.819v51.819H206.745z"/>
<g>
	<rect x="232.957" y="241.094" style="fill:#FFFFFF;" width="72.665" height="10.721"/>
	<rect x="232.957" y="210.121" style="fill:#FFFFFF;" width="72.665" height="10.721"/>
	<rect x="154.932" y="205.059" style="fill:#FFFFFF;" width="51.819" height="51.819"/>
</g>
<path style="fill:#F2F2F2;" d="M348.228,291.149l-9.28-8.493v35.511c0,0.596-0.488,1.084-1.084,1.084h-71.498l-1.358,0.06
	c-0.095-2.073-0.143-4.157-0.143-6.242v-59.693c0-10.912-4.419-20.799-11.579-27.946c-7.147-7.147-17.023-11.579-27.934-11.579
	c-21.835,0-39.525,17.702-39.525,39.525v61.337c0,1.513-0.012,3.038-0.036,4.551c-0.203,14.759-1.418,29.483-3.621,44.052
	c-0.012,0.048-0.012,0.083-0.024,0.131c-2.454,16.117-6.111,32.044-10.959,47.637c-4.419,14.211-2.12,29.662,6.242,41.967
	l8.172,12.02c4.693,6.909,8.303,14.45,10.733,22.336c2.442,7.898,3.693,16.153,3.693,24.516l1.067,0.079h126.803l40.903-134.582
	l0.107-0.405l3.371-12.329l0.012-0.06C377.64,337.81,368.682,309.875,348.228,291.149z"/>
<g>
	<path style="fill:#CCCCCC;" d="M235.931,321.204h-25.016c-2.96,0-5.361-2.4-5.361-5.361s2.4-5.361,5.361-5.361h25.016
		c2.96,0,5.361,2.4,5.361,5.361S238.891,321.204,235.931,321.204z"/>
	<path style="fill:#CCCCCC;" d="M235.931,337.881h-25.016c-2.96,0-5.361-2.4-5.361-5.361c0-2.96,2.4-5.361,5.361-5.361h25.016
		c2.96,0,5.361,2.4,5.361,5.361C241.291,335.481,238.891,337.881,235.931,337.881z"/>
</g>
<g>
	<rect x="232.957" y="75.512" style="fill:#FFFFFF;" width="72.665" height="10.721"/>
	<rect x="232.957" y="44.54" style="fill:#FFFFFF;" width="72.665" height="10.721"/>
	<rect x="232.957" y="158.601" style="fill:#FFFFFF;" width="72.665" height="10.721"/>
	<rect x="232.957" y="127.629" style="fill:#FFFFFF;" width="72.665" height="10.721"/>
</g>
<path style="fill:#CCCCCC;" d="M247.569,236.344v11.277c0,6.177-2.502,11.767-6.54,15.82c-4.053,4.038-9.642,6.54-15.82,6.54
	c-12.353,0-22.359-10.005-22.359-22.359v-11.095L247.569,236.344z"/>
<polygon style="fill:#4079BF;" points="179.324,169.284 162.372,138.769 171.743,133.562 178.616,145.932 196.371,108.836 
	206.041,113.464 "/>
<g>
</g>
<g>
</g>
<g>
</g>
<g>
</g>
<g>
</g>
<g>
</g>
<g>
</g>
<g>
</g>
<g>
</g>
<g>
</g>
<g>
</g>
<g>
</g>
<g>
</g>
<g>
</g>
<g>
</g>
</svg>
