<?xml version="1.0" encoding="UTF-8" standalone="no"?>
<!DOCTYPE svg PUBLIC "-//W3C//DTD SVG 1.1//EN"
 "http://www.w3.org/Graphics/SVG/1.1/DTD/svg11.dtd">
<!-- Generated by graphviz version 2.40.1 (20161225.0304)
 -->
<!-- Title: G Pages: 1 -->
<svg width="712pt" height="1768pt"
 viewBox="0.00 0.00 712.18 1768.00" xmlns="http://www.w3.org/2000/svg" xmlns:xlink="http://www.w3.org/1999/xlink">
<g id="graph0" class="graph" transform="scale(1 1) rotate(0) translate(4 1764)">
<title>G</title>
<polygon fill="#ffffff" stroke="transparent" points="-4,4 -4,-1764 708.1794,-1764 708.1794,4 -4,4"/>
<g id="clust1" class="cluster">
<title>cluster_Global</title>
<path fill="none" stroke="#c0c0c0" d="M78.3397,-44C78.3397,-44 684.1794,-44 684.1794,-44 690.1794,-44 696.1794,-50 696.1794,-56 696.1794,-56 696.1794,-1740 696.1794,-1740 696.1794,-1746 690.1794,-1752 684.1794,-1752 684.1794,-1752 78.3397,-1752 78.3397,-1752 72.3397,-1752 66.3397,-1746 66.3397,-1740 66.3397,-1740 66.3397,-56 66.3397,-56 66.3397,-50 72.3397,-44 78.3397,-44"/>
<text text-anchor="middle" x="381.2595" y="-1739.2" font-family="Times,serif" font-size="11.00" fill="#c0c0c0">Global</text>
</g>
<g id="clust2" class="cluster">
<title>cluster_\Composer</title>
<path fill="none" stroke="#c0c0c0" d="M314.1794,-1562C314.1794,-1562 676.1794,-1562 676.1794,-1562 682.1794,-1562 688.1794,-1568 688.1794,-1574 688.1794,-1574 688.1794,-1712 688.1794,-1712 688.1794,-1718 682.1794,-1724 676.1794,-1724 676.1794,-1724 314.1794,-1724 314.1794,-1724 308.1794,-1724 302.1794,-1718 302.1794,-1712 302.1794,-1712 302.1794,-1574 302.1794,-1574 302.1794,-1568 308.1794,-1562 314.1794,-1562"/>
<text text-anchor="middle" x="495.1794" y="-1711.2" font-family="Times,serif" font-size="11.00" fill="#c0c0c0">Composer</text>
</g>
<g id="clust3" class="cluster">
<title>cluster_\Composer\Autoload</title>
<path fill="none" stroke="#c0c0c0" d="M322.1794,-1570C322.1794,-1570 668.1794,-1570 668.1794,-1570 674.1794,-1570 680.1794,-1576 680.1794,-1582 680.1794,-1582 680.1794,-1684 680.1794,-1684 680.1794,-1690 674.1794,-1696 668.1794,-1696 668.1794,-1696 322.1794,-1696 322.1794,-1696 316.1794,-1696 310.1794,-1690 310.1794,-1684 310.1794,-1684 310.1794,-1582 310.1794,-1582 310.1794,-1576 316.1794,-1570 322.1794,-1570"/>
<text text-anchor="middle" x="495.1794" y="-1683.2" font-family="Times,serif" font-size="11.00" fill="#c0c0c0">Autoload</text>
</g>
<g id="clust4" class="cluster">
<title>cluster_\Firebase</title>
<path fill="none" stroke="#c0c0c0" d="M398.6794,-52C398.6794,-52 591.6794,-52 591.6794,-52 597.6794,-52 603.6794,-58 603.6794,-64 603.6794,-64 603.6794,-310 603.6794,-310 603.6794,-316 597.6794,-322 591.6794,-322 591.6794,-322 398.6794,-322 398.6794,-322 392.6794,-322 386.6794,-316 386.6794,-310 386.6794,-310 386.6794,-64 386.6794,-64 386.6794,-58 392.6794,-52 398.6794,-52"/>
<text text-anchor="middle" x="495.1794" y="-309.2" font-family="Times,serif" font-size="11.00" fill="#c0c0c0">Firebase</text>
</g>
<g id="clust5" class="cluster">
<title>cluster_\Firebase\JWT</title>
<path fill="none" stroke="#c0c0c0" d="M406.6794,-60C406.6794,-60 583.6794,-60 583.6794,-60 589.6794,-60 595.6794,-66 595.6794,-72 595.6794,-72 595.6794,-282 595.6794,-282 595.6794,-288 589.6794,-294 583.6794,-294 583.6794,-294 406.6794,-294 406.6794,-294 400.6794,-294 394.6794,-288 394.6794,-282 394.6794,-282 394.6794,-72 394.6794,-72 394.6794,-66 400.6794,-60 406.6794,-60"/>
<text text-anchor="middle" x="495.1794" y="-281.2" font-family="Times,serif" font-size="11.00" fill="#c0c0c0">JWT</text>
</g>
<!-- \\Composer\\Autoload\\ClassLoader -->
<g id="node1" class="node">
<title>\\Composer\\Autoload\\ClassLoader</title>
<polygon fill="none" stroke="#000000" points="540.6794,-1668 449.6794,-1668 449.6794,-1632 540.6794,-1632 540.6794,-1668"/>
<text text-anchor="middle" x="495.1794" y="-1647.2" font-family="Courier,monospace" font-size="11.00" fill="#000000">ClassLoader</text>
</g>
<!-- \\Composer\\Autoload\\ComposerStaticInit44c3b446dc766beef2531d584df149ff -->
<g id="node2" class="node">
<title>\\Composer\\Autoload\\ComposerStaticInit44c3b446dc766beef2531d584df149ff</title>
<polygon fill="none" stroke="#000000" points="672.1794,-1614 318.1794,-1614 318.1794,-1578 672.1794,-1578 672.1794,-1614"/>
<text text-anchor="middle" x="495.1794" y="-1593.2" font-family="Courier,monospace" font-size="11.00" fill="#000000">ComposerStaticInit44c3b446dc766beef2531d584df149ff</text>
</g>
<!-- \\Firebase\\JWT\\SignatureInvalidException -->
<g id="node3" class="node">
<title>\\Firebase\\JWT\\SignatureInvalidException</title>
<polygon fill="none" stroke="#000000" points="587.6794,-266 402.6794,-266 402.6794,-230 587.6794,-230 587.6794,-266"/>
<text text-anchor="middle" x="495.1794" y="-245.2" font-family="Courier,monospace" font-size="11.00" fill="#000000">SignatureInvalidException</text>
</g>
<!-- \\UnexpectedValueException -->
<g id="node32" class="node">
<title>\\UnexpectedValueException</title>
<ellipse fill="none" stroke="#000000" cx="116.3397" cy="-18" rx="116.1796" ry="18"/>
<text text-anchor="middle" x="116.3397" y="-14.3" font-family="Times,serif" font-size="14.00" fill="#c0c0c0">\UnexpectedValueException</text>
</g>
<!-- \\Firebase\\JWT\\SignatureInvalidException&#45;&gt;\\UnexpectedValueException -->
<g id="edge19" class="edge">
<title>\\Firebase\\JWT\\SignatureInvalidException&#45;&gt;\\UnexpectedValueException</title>
<path fill="none" stroke="#000000" d="M402.4693,-254.0053C367.8117,-251.6995 330.1219,-243.2099 302.1794,-221 234.7217,-167.382 298.8337,-95.2181 232.6794,-40 229.395,-37.2586 225.8756,-34.8175 222.1813,-32.646"/>
<polygon fill="none" stroke="#000000" points="223.7642,-29.5243 213.2718,-28.0541 220.5572,-35.7465 223.7642,-29.5243"/>
</g>
<!-- \\Firebase\\JWT\\BeforeValidException -->
<g id="node4" class="node">
<title>\\Firebase\\JWT\\BeforeValidException</title>
<polygon fill="none" stroke="#000000" points="571.1794,-212 419.1794,-212 419.1794,-176 571.1794,-176 571.1794,-212"/>
<text text-anchor="middle" x="495.1794" y="-191.2" font-family="Courier,monospace" font-size="11.00" fill="#000000">BeforeValidException</text>
</g>
<!-- \\Firebase\\JWT\\BeforeValidException&#45;&gt;\\UnexpectedValueException -->
<g id="edge20" class="edge">
<title>\\Firebase\\JWT\\BeforeValidException&#45;&gt;\\UnexpectedValueException</title>
<path fill="none" stroke="#000000" d="M418.8718,-198.8059C380.821,-197.5728 335.862,-190.2684 302.1794,-167 249.2395,-130.4285 284.7282,-77.8288 232.6794,-40 228.9303,-37.2752 224.9391,-34.8597 220.7776,-32.7201"/>
<polygon fill="none" stroke="#000000" points="221.9748,-29.4196 211.4231,-28.4642 219.0759,-35.7912 221.9748,-29.4196"/>
</g>
<!-- \\Firebase\\JWT\\ExpiredException -->
<g id="node5" class="node">
<title>\\Firebase\\JWT\\ExpiredException</title>
<polygon fill="none" stroke="#000000" points="557.6794,-158 432.6794,-158 432.6794,-122 557.6794,-122 557.6794,-158"/>
<text text-anchor="middle" x="495.1794" y="-137.2" font-family="Courier,monospace" font-size="11.00" fill="#000000">ExpiredException</text>
</g>
<!-- \\Firebase\\JWT\\ExpiredException&#45;&gt;\\UnexpectedValueException -->
<g id="edge22" class="edge">
<title>\\Firebase\\JWT\\ExpiredException&#45;&gt;\\UnexpectedValueException</title>
<path fill="none" stroke="#000000" d="M432.4947,-141.5449C393.1164,-140.0915 342.3572,-133.6357 302.1794,-113 262.331,-92.5336 272.0261,-61.4148 232.6794,-40 227.5901,-37.2301 222.2112,-34.8035 216.6679,-32.6781"/>
<polygon fill="none" stroke="#000000" points="217.8011,-29.3666 207.2063,-29.3783 215.4959,-35.9762 217.8011,-29.3666"/>
</g>
<!-- \\Firebase\\JWT\\JWT -->
<g id="node6" class="node">
<title>\\Firebase\\JWT\\JWT</title>
<polygon fill="none" stroke="#000000" points="522.1794,-104 468.1794,-104 468.1794,-68 522.1794,-68 522.1794,-104"/>
<text text-anchor="middle" x="495.1794" y="-83.2" font-family="Courier,monospace" font-size="11.00" fill="#000000">JWT</text>
</g>
<!-- \\ModelAdministrateur -->
<g id="node7" class="node">
<title>\\ModelAdministrateur</title>
<polygon fill="none" stroke="#000000" points="567.6794,-906 422.6794,-906 422.6794,-870 567.6794,-870 567.6794,-906"/>
<text text-anchor="middle" x="495.1794" y="-885.2" font-family="Courier,monospace" font-size="11.00" fill="#000000">ModelAdministrateur</text>
</g>
<!-- \\Model -->
<g id="node27" class="node">
<title>\\Model</title>
<polygon fill="none" stroke="#000000" points="158.3397,-744 74.3397,-744 74.3397,-708 158.3397,-708 158.3397,-744"/>
<text text-anchor="start" x="82.3397" y="-729.2" font-family="Courier,monospace" font-size="11.00" fill="#000000">«abstract»</text>
<text text-anchor="start" x="99.3397" y="-717.2" font-family="Courier,monospace" font-size="11.00" fill="#000000">Model</text>
</g>
<!-- \\ModelAdministrateur&#45;&gt;\\Model -->
<g id="edge1" class="edge">
<title>\\ModelAdministrateur&#45;&gt;\\Model</title>
<path fill="none" stroke="#000000" d="M422.4425,-886.1767C385.335,-883.1922 340.142,-876.3224 302.1794,-861 238.1597,-835.1606 175.739,-782.531 142.0321,-751.1621"/>
<polygon fill="none" stroke="#000000" points="144.1696,-748.3669 134.493,-744.0524 139.3669,-753.4596 144.1696,-748.3669"/>
</g>
<!-- \\ModelPromotion -->
<g id="node8" class="node">
<title>\\ModelPromotion</title>
<polygon fill="none" stroke="#000000" points="550.6794,-852 439.6794,-852 439.6794,-816 550.6794,-816 550.6794,-852"/>
<text text-anchor="middle" x="495.1794" y="-831.2" font-family="Courier,monospace" font-size="11.00" fill="#000000">ModelPromotion</text>
</g>
<!-- \\ModelPromotion&#45;&gt;\\Model -->
<g id="edge2" class="edge">
<title>\\ModelPromotion&#45;&gt;\\Model</title>
<path fill="none" stroke="#000000" d="M439.4502,-830.2387C400.45,-826.6335 347.4403,-819.771 302.1794,-807 251.2803,-792.6382 196.1051,-767.2287 159.2104,-748.6892"/>
<polygon fill="none" stroke="#000000" points="160.7392,-745.5401 150.238,-744.1347 157.5707,-751.782 160.7392,-745.5401"/>
</g>
<!-- \\ResultatController -->
<g id="node9" class="node">
<title>\\ResultatController</title>
<polygon fill="none" stroke="#000000" points="564.1794,-1284 426.1794,-1284 426.1794,-1248 564.1794,-1248 564.1794,-1284"/>
<text text-anchor="middle" x="495.1794" y="-1263.2" font-family="Courier,monospace" font-size="11.00" fill="#000000">ResultatController</text>
</g>
<!-- \\Controller -->
<g id="node31" class="node">
<title>\\Controller</title>
<polygon fill="none" stroke="#000000" points="158.3397,-1311 74.3397,-1311 74.3397,-1275 158.3397,-1275 158.3397,-1311"/>
<text text-anchor="middle" x="116.3397" y="-1290.2" font-family="Courier,monospace" font-size="11.00" fill="#000000">Controller</text>
</g>
<!-- \\ResultatController&#45;&gt;\\Controller -->
<g id="edge3" class="edge">
<title>\\ResultatController&#45;&gt;\\Controller</title>
<path fill="none" stroke="#000000" d="M426.1348,-1270.9208C351.9902,-1276.2051 235.8301,-1284.4839 168.8109,-1289.2604"/>
<polygon fill="none" stroke="#000000" points="168.2165,-1285.7938 158.4906,-1289.9959 168.7141,-1292.776 168.2165,-1285.7938"/>
</g>
<!-- \\ModelPersonnalite -->
<g id="node10" class="node">
<title>\\ModelPersonnalite</title>
<polygon fill="none" stroke="#000000" points="560.6794,-798 429.6794,-798 429.6794,-762 560.6794,-762 560.6794,-798"/>
<text text-anchor="middle" x="495.1794" y="-777.2" font-family="Courier,monospace" font-size="11.00" fill="#000000">ModelPersonnalite</text>
</g>
<!-- \\ModelPersonnalite&#45;&gt;\\Model -->
<g id="edge4" class="edge">
<title>\\ModelPersonnalite&#45;&gt;\\Model</title>
<path fill="none" stroke="#000000" d="M429.5102,-770.9007C392.1721,-765.7051 344.5498,-759.0416 302.1794,-753 257.0407,-746.5637 205.7584,-739.1018 168.5161,-733.6557"/>
<polygon fill="none" stroke="#000000" points="168.8023,-730.1604 158.4009,-732.1756 167.7888,-737.0866 168.8023,-730.1604"/>
</g>
<!-- \\ModelDepartement -->
<g id="node11" class="node">
<title>\\ModelDepartement</title>
<polygon fill="none" stroke="#000000" points="557.6794,-744 432.6794,-744 432.6794,-708 557.6794,-708 557.6794,-744"/>
<text text-anchor="middle" x="495.1794" y="-723.2" font-family="Courier,monospace" font-size="11.00" fill="#000000">ModelDepartement</text>
</g>
<!-- \\ModelDepartement&#45;&gt;\\Model -->
<g id="edge5" class="edge">
<title>\\ModelDepartement&#45;&gt;\\Model</title>
<path fill="none" stroke="#000000" d="M432.6217,-726C358.8598,-726 237.5977,-726 168.6221,-726"/>
<polygon fill="none" stroke="#000000" points="168.4265,-722.5001 158.4265,-726 168.4264,-729.5001 168.4265,-722.5001"/>
</g>
<!-- \\AdminController -->
<g id="node12" class="node">
<title>\\AdminController</title>
<polygon fill="none" stroke="#000000" points="554.1794,-1230 436.1794,-1230 436.1794,-1194 554.1794,-1194 554.1794,-1230"/>
<text text-anchor="middle" x="495.1794" y="-1209.2" font-family="Courier,monospace" font-size="11.00" fill="#000000">AdminController</text>
</g>
<!-- \\AdminController&#45;&gt;\\Controller -->
<g id="edge6" class="edge">
<title>\\AdminController&#45;&gt;\\Controller</title>
<path fill="none" stroke="#000000" d="M436.0934,-1218.0354C397.6921,-1222.505 346.6769,-1229.4743 302.1794,-1239 256.3379,-1248.8134 205.2597,-1263.9713 168.2716,-1275.7324"/>
<polygon fill="none" stroke="#000000" points="167.1616,-1272.4127 158.7069,-1278.7978 169.298,-1279.0787 167.1616,-1272.4127"/>
</g>
<!-- \\RegisterController -->
<g id="node13" class="node">
<title>\\RegisterController</title>
<polygon fill="none" stroke="#000000" points="564.1794,-1176 426.1794,-1176 426.1794,-1140 564.1794,-1140 564.1794,-1176"/>
<text text-anchor="middle" x="495.1794" y="-1155.2" font-family="Courier,monospace" font-size="11.00" fill="#000000">RegisterController</text>
</g>
<!-- \\RegisterController&#45;&gt;\\Controller -->
<g id="edge7" class="edge">
<title>\\RegisterController&#45;&gt;\\Controller</title>
<path fill="none" stroke="#000000" d="M425.7845,-1161.2034C388.3524,-1164.5346 341.8318,-1171.2975 302.1794,-1185 244.4661,-1204.9436 184.6049,-1243.5167 148.9212,-1268.7554"/>
<polygon fill="none" stroke="#000000" points="146.4801,-1266.1985 140.386,-1274.8653 150.5546,-1271.8904 146.4801,-1266.1985"/>
</g>
<!-- \\QuestionnaireController -->
<g id="node14" class="node">
<title>\\QuestionnaireController</title>
<polygon fill="none" stroke="#000000" points="581.1794,-1122 409.1794,-1122 409.1794,-1086 581.1794,-1086 581.1794,-1122"/>
<text text-anchor="middle" x="495.1794" y="-1101.2" font-family="Courier,monospace" font-size="11.00" fill="#000000">QuestionnaireController</text>
</g>
<!-- \\QuestionnaireController&#45;&gt;\\Controller -->
<g id="edge8" class="edge">
<title>\\QuestionnaireController&#45;&gt;\\Controller</title>
<path fill="none" stroke="#000000" d="M409.0987,-1105.4773C374.6018,-1108.7263 335.2696,-1115.9049 302.1794,-1131 232.1265,-1162.9567 168.7591,-1229.9971 137.2737,-1267.0333"/>
<polygon fill="none" stroke="#000000" points="134.4275,-1264.9805 130.688,-1274.8934 139.7931,-1269.4762 134.4275,-1264.9805"/>
</g>
<!-- \\View -->
<g id="node15" class="node">
<title>\\View</title>
<polygon fill="none" stroke="#000000" points="522.1794,-1068 468.1794,-1068 468.1794,-1032 522.1794,-1032 522.1794,-1068"/>
<text text-anchor="middle" x="495.1794" y="-1047.2" font-family="Courier,monospace" font-size="11.00" fill="#000000">View</text>
</g>
<!-- \\IndexController -->
<g id="node16" class="node">
<title>\\IndexController</title>
<polygon fill="none" stroke="#000000" points="554.1794,-1014 436.1794,-1014 436.1794,-978 554.1794,-978 554.1794,-1014"/>
<text text-anchor="middle" x="495.1794" y="-993.2" font-family="Courier,monospace" font-size="11.00" fill="#000000">IndexController</text>
</g>
<!-- \\IndexController&#45;&gt;\\Controller -->
<g id="edge9" class="edge">
<title>\\IndexController&#45;&gt;\\Controller</title>
<path fill="none" stroke="#000000" d="M436.1578,-992.2734C395.6474,-992.4439 342.1862,-998.2795 302.1794,-1023 207.1911,-1081.6938 148.6368,-1209.0349 126.4695,-1265.3078"/>
<polygon fill="none" stroke="#000000" points="123.2013,-1264.0554 122.8701,-1274.645 129.7328,-1266.5732 123.2013,-1264.0554"/>
</g>
<!-- \\ModelClasse -->
<g id="node17" class="node">
<title>\\ModelClasse</title>
<polygon fill="none" stroke="#000000" points="540.6794,-960 449.6794,-960 449.6794,-924 540.6794,-924 540.6794,-960"/>
<text text-anchor="middle" x="495.1794" y="-939.2" font-family="Courier,monospace" font-size="11.00" fill="#000000">ModelClasse</text>
</g>
<!-- \\ModelClasse&#45;&gt;\\Model -->
<g id="edge10" class="edge">
<title>\\ModelClasse&#45;&gt;\\Model</title>
<path fill="none" stroke="#000000" d="M449.444,-943.7126C408.7146,-943.4087 348.5662,-938.3539 302.1794,-915 226.0092,-876.6514 162.7324,-794.782 133.5975,-752.4971"/>
<polygon fill="none" stroke="#000000" points="136.4157,-750.4167 127.9063,-744.1047 130.6222,-754.3456 136.4157,-750.4167"/>
</g>
<!-- \\ClasseController -->
<g id="node18" class="node">
<title>\\ClasseController</title>
<polygon fill="none" stroke="#000000" points="557.6794,-1554 432.6794,-1554 432.6794,-1518 557.6794,-1518 557.6794,-1554"/>
<text text-anchor="middle" x="495.1794" y="-1533.2" font-family="Courier,monospace" font-size="11.00" fill="#000000">ClasseController</text>
</g>
<!-- \\ClasseController&#45;&gt;\\Controller -->
<g id="edge11" class="edge">
<title>\\ClasseController&#45;&gt;\\Controller</title>
<path fill="none" stroke="#000000" d="M432.5727,-1538.2483C392.9875,-1537.1012 341.9734,-1530.7217 302.1794,-1509 219.918,-1464.0974 157.6341,-1367.3616 130.8099,-1320.0999"/>
<polygon fill="none" stroke="#000000" points="133.7021,-1318.0998 125.7759,-1311.0695 127.5879,-1321.5082 133.7021,-1318.0998"/>
</g>
<!-- \\ModelRepondre -->
<g id="node19" class="node">
<title>\\ModelRepondre</title>
<polygon fill="none" stroke="#000000" points="547.1794,-690 443.1794,-690 443.1794,-654 547.1794,-654 547.1794,-690"/>
<text text-anchor="middle" x="495.1794" y="-669.2" font-family="Courier,monospace" font-size="11.00" fill="#000000">ModelRepondre</text>
</g>
<!-- \\ModelRepondre&#45;&gt;\\Model -->
<g id="edge12" class="edge">
<title>\\ModelRepondre&#45;&gt;\\Model</title>
<path fill="none" stroke="#000000" d="M443.1529,-679.2025C404.3029,-684.5993 349.9089,-692.1942 302.1794,-699 257.0407,-705.4363 205.7584,-712.8982 168.5161,-718.3443"/>
<polygon fill="none" stroke="#000000" points="167.7888,-714.9134 158.4009,-719.8244 168.8023,-721.8396 167.7888,-714.9134"/>
</g>
<!-- \\LoginController -->
<g id="node20" class="node">
<title>\\LoginController</title>
<polygon fill="none" stroke="#000000" points="554.1794,-1500 436.1794,-1500 436.1794,-1464 554.1794,-1464 554.1794,-1500"/>
<text text-anchor="middle" x="495.1794" y="-1479.2" font-family="Courier,monospace" font-size="11.00" fill="#000000">LoginController</text>
</g>
<!-- \\LoginController&#45;&gt;\\Controller -->
<g id="edge13" class="edge">
<title>\\LoginController&#45;&gt;\\Controller</title>
<path fill="none" stroke="#000000" d="M436.1771,-1482.392C396.6588,-1480.6175 344.3502,-1474.2375 302.1794,-1455 232.1265,-1423.0433 168.7591,-1356.0029 137.2737,-1318.9667"/>
<polygon fill="none" stroke="#000000" points="139.7931,-1316.5238 130.688,-1311.1066 134.4275,-1321.0195 139.7931,-1316.5238"/>
</g>
<!-- \\DashboardController -->
<g id="node21" class="node">
<title>\\DashboardController</title>
<polygon fill="none" stroke="#000000" points="567.6794,-1446 422.6794,-1446 422.6794,-1410 567.6794,-1410 567.6794,-1446"/>
<text text-anchor="middle" x="495.1794" y="-1425.2" font-family="Courier,monospace" font-size="11.00" fill="#000000">DashboardController</text>
</g>
<!-- \\DashboardController&#45;&gt;\\Controller -->
<g id="edge14" class="edge">
<title>\\DashboardController&#45;&gt;\\Controller</title>
<path fill="none" stroke="#000000" d="M422.5934,-1424.5062C385.7317,-1421.0781 340.7126,-1414.3157 302.1794,-1401 244.4661,-1381.0564 184.6049,-1342.4833 148.9212,-1317.2446"/>
<polygon fill="none" stroke="#000000" points="150.5546,-1314.1096 140.386,-1311.1347 146.4801,-1319.8015 150.5546,-1314.1096"/>
</g>
<!-- \\ModelGroupe -->
<g id="node22" class="node">
<title>\\ModelGroupe</title>
<polygon fill="none" stroke="#000000" points="540.6794,-636 449.6794,-636 449.6794,-600 540.6794,-600 540.6794,-636"/>
<text text-anchor="middle" x="495.1794" y="-615.2" font-family="Courier,monospace" font-size="11.00" fill="#000000">ModelGroupe</text>
</g>
<!-- \\ModelGroupe&#45;&gt;\\Model -->
<g id="edge15" class="edge">
<title>\\ModelGroupe&#45;&gt;\\Model</title>
<path fill="none" stroke="#000000" d="M449.6161,-620.8658C410.0468,-624.18 351.5105,-631.0806 302.1794,-645 251.2803,-659.3618 196.1051,-684.7713 159.2104,-703.3108"/>
<polygon fill="none" stroke="#000000" points="157.5707,-700.218 150.238,-707.8653 160.7392,-706.4599 157.5707,-700.218"/>
</g>
<!-- \\ModelProposition -->
<g id="node23" class="node">
<title>\\ModelProposition</title>
<polygon fill="none" stroke="#000000" points="557.6794,-528 432.6794,-528 432.6794,-492 557.6794,-492 557.6794,-528"/>
<text text-anchor="middle" x="495.1794" y="-507.2" font-family="Courier,monospace" font-size="11.00" fill="#000000">ModelProposition</text>
</g>
<!-- \\ModelProposition&#45;&gt;\\Model -->
<g id="edge16" class="edge">
<title>\\ModelProposition&#45;&gt;\\Model</title>
<path fill="none" stroke="#000000" d="M432.6081,-508.6781C393.2744,-510.2191 342.5223,-516.6889 302.1794,-537 226.0092,-575.3486 162.7324,-657.218 133.5975,-699.5029"/>
<polygon fill="none" stroke="#000000" points="130.6222,-697.6544 127.9063,-707.8953 136.4157,-701.5833 130.6222,-697.6544"/>
</g>
<!-- \\Kernel -->
<g id="node24" class="node">
<title>\\Kernel</title>
<polygon fill="none" stroke="#000000" points="523.6794,-582 466.6794,-582 466.6794,-546 523.6794,-546 523.6794,-582"/>
<text text-anchor="middle" x="495.1794" y="-561.2" font-family="Courier,monospace" font-size="11.00" fill="#000000">Kernel</text>
</g>
<!-- \\ProfileController -->
<g id="node25" class="node">
<title>\\ProfileController</title>
<polygon fill="none" stroke="#000000" points="560.6794,-1392 429.6794,-1392 429.6794,-1356 560.6794,-1356 560.6794,-1392"/>
<text text-anchor="middle" x="495.1794" y="-1371.2" font-family="Courier,monospace" font-size="11.00" fill="#000000">ProfileController</text>
</g>
<!-- \\ProfileController&#45;&gt;\\Controller -->
<g id="edge17" class="edge">
<title>\\ProfileController&#45;&gt;\\Controller</title>
<path fill="none" stroke="#000000" d="M429.555,-1367.1935C392.0229,-1362.7098 344.1956,-1355.9946 302.1794,-1347 256.3379,-1337.1866 205.2597,-1322.0287 168.2716,-1310.2676"/>
<polygon fill="none" stroke="#000000" points="169.298,-1306.9213 158.7069,-1307.2022 167.1616,-1313.5873 169.298,-1306.9213"/>
</g>
<!-- \\ComposerAutoloaderInit44c3b446dc766beef2531d584df149ff -->
<g id="node26" class="node">
<title>\\ComposerAutoloaderInit44c3b446dc766beef2531d584df149ff</title>
<polygon fill="none" stroke="#000000" points="685.6794,-474 304.6794,-474 304.6794,-438 685.6794,-438 685.6794,-474"/>
<text text-anchor="middle" x="495.1794" y="-453.2" font-family="Courier,monospace" font-size="11.00" fill="#000000">ComposerAutoloaderInit44c3b446dc766beef2531d584df149ff</text>
</g>
<!-- \\ErrorController -->
<g id="node28" class="node">
<title>\\ErrorController</title>
<polygon fill="none" stroke="#000000" points="554.1794,-1338 436.1794,-1338 436.1794,-1302 554.1794,-1302 554.1794,-1338"/>
<text text-anchor="middle" x="495.1794" y="-1317.2" font-family="Courier,monospace" font-size="11.00" fill="#000000">ErrorController</text>
</g>
<!-- \\ErrorController&#45;&gt;\\Controller -->
<g id="edge18" class="edge">
<title>\\ErrorController&#45;&gt;\\Controller</title>
<path fill="none" stroke="#000000" d="M435.9857,-1315.7813C362.6483,-1310.5545 238.8329,-1301.7301 168.7715,-1296.7368"/>
<polygon fill="none" stroke="#000000" points="168.6443,-1293.219 158.4208,-1295.9991 168.1466,-1300.2013 168.6443,-1293.219"/>
</g>
<!-- \\Router -->
<g id="node29" class="node">
<title>\\Router</title>
<polygon fill="none" stroke="#000000" points="523.6794,-366 466.6794,-366 466.6794,-330 523.6794,-330 523.6794,-366"/>
<text text-anchor="middle" x="495.1794" y="-345.2" font-family="Courier,monospace" font-size="11.00" fill="#000000">Router</text>
</g>
<!-- \\ModelEtudiant -->
<g id="node30" class="node">
<title>\\ModelEtudiant</title>
<polygon fill="none" stroke="#000000" points="547.1794,-420 443.1794,-420 443.1794,-384 547.1794,-384 547.1794,-420"/>
<text text-anchor="middle" x="495.1794" y="-399.2" font-family="Courier,monospace" font-size="11.00" fill="#000000">ModelEtudiant</text>
</g>
<!-- \\ModelEtudiant&#45;&gt;\\Model -->
<g id="edge21" class="edge">
<title>\\ModelEtudiant&#45;&gt;\\Model</title>
<path fill="none" stroke="#000000" d="M443.1239,-397.8061C401.7417,-397.0198 344.0493,-401.8464 302.1794,-429 200.6306,-494.8566 144.6663,-637.7779 124.7759,-698.1693"/>
<polygon fill="none" stroke="#000000" points="121.4113,-697.1997 121.6843,-707.791 128.0757,-699.3412 121.4113,-697.1997"/>
</g>
</g>
</svg>
